<svg width="609" height="80" baseProfile="tiny"><path fill="#387ed1" fill-rule="evenodd" d="M66.252 21.469c4.404 5.71 8.056 12.124 10.886 19.04V3.931H46.077c7.472 4.037 14.317 9.943 20.175 17.538M21.473 7.828c-5.754 0-11.289 1.23-16.473 3.506v64.735h68.963c-.534-37.754-23.875-68.241-52.49-68.241"/><path fill="#387ed1" d="m118.349 64.918 38.533-46.65H119.56V8.098h52.25v8.49l-38.533 46.651h38.533v10.169h-53.461zm67.828-56.82h48.331v10.356H197.56v16.794h32.751v10.357H197.56v17.446h37.413v10.356h-48.796zm62.512 0h29.11q6.158 0 10.917 1.726c4.759 1.726 5.814 2.752 7.93 4.805q2.613 2.707 4.013 6.251c1.4 3.544 1.398 4.977 1.398 7.837v.187q0 4.012-1.165 7.231c-1.165 3.219-1.853 4.044-3.22 5.691s-3.001 3.049-4.898 4.198-3.997 2.038-6.297 2.659l17.633 24.725h-13.529l-16.097-22.765h-14.413v22.765h-11.383V8.098zm28.231 32.375c4.115 0 7.393-.982 9.824-2.951s3.652-4.639 3.652-8.012v-.187q-.001-5.34-3.559-8.106c-3.558-2.766-5.709-2.764-10.014-2.764h-16.752v22.019zm70.389 34.055q-7.558 0-13.807-2.658c-6.249-2.658-7.744-4.182-10.73-7.232s-5.318-6.607-6.996-10.682-2.521-8.413-2.521-13.016v-.187q0-6.904 2.521-13.016c2.521-6.112 4.041-7.651 7.09-10.73s6.654-5.52 10.824-7.324 8.768-2.706 13.807-2.706 9.641.886 13.809 2.659 7.744 4.184 10.73 7.231 5.316 6.609 6.996 10.683 2.521 8.413 2.521 13.015v.187q0 6.907-2.521 13.015c-2.521 6.108-4.043 7.651-7.09 10.73s-6.656 5.521-10.824 7.324-8.77 2.707-13.809 2.707m.187-10.543q4.832 0 8.871-1.819c4.039-1.819 5.002-2.86 6.922-4.944s3.422-4.526 4.506-7.325 1.625-5.785 1.625-8.956v-.187q0-4.758-1.625-9.004c-1.625-4.246-2.604-5.286-4.553-7.37s-4.289-3.747-7.016-4.992-5.697-1.866-8.918-1.866-6.178.606-8.871 1.819-5.002 2.862-6.922 4.945-3.422 4.525-4.508 7.324-1.625 5.785-1.625 8.957v.187q0 4.758 1.625 9.002c1.625 4.244 2.604 5.289 4.555 7.372s4.289 3.748 7.014 4.991 5.699 1.866 8.92 1.866m47.955-55.887h24.354q7.649 0 14.043 2.473c6.394 2.473 7.928 3.934 11.008 6.857s5.457 6.361 7.139 10.311 2.52 8.227 2.52 12.829v.187q0 6.906-2.52 12.875c-2.52 5.969-4.059 7.435-7.139 10.356s-6.748 5.226-11.008 6.904-8.943 2.519-14.043 2.519h-24.354zm24.26 54.954q5.13.001 9.33-1.639c4.2-1.64 5.18-2.622 7.137-4.589s3.482-4.312 4.572-7.03 1.635-5.667 1.635-8.854v-.187q-.002-4.779-1.635-8.9c-1.633-4.121-2.613-5.106-4.572-7.074s-4.338-3.514-7.137-4.639-5.91-1.687-9.33-1.687h-12.877v44.598zm48.703-54.954h11.383v27.151h31.352V8.098h11.383v65.311h-11.383V45.885h-31.352v27.523h-11.383zm94.049-.467H573.1l28.736 65.777h-12.129l-6.625-15.768h-30.883l-6.719 15.768h-11.756zm16.422 39.841-11.291-26.125-11.197 26.125z"/></svg>