<svg width="103" height="18" fill="none"><path fill="#fff" d="M1 3.69A3.69 3.69 0 0 1 4.69 0h10.332a3.69 3.69 0 0 1 3.69 3.69v10.332a3.69 3.69 0 0 1-3.69 3.69H4.69A3.69 3.69 0 0 1 1 14.022z"/><path fill="#FF5722" d="M4.542 0A3.54 3.54 0 0 0 1 3.542v1.329h4.348c.429 0 .81.274.945.681l1.987 5.96h3.152l1.986-5.96a1 1 0 0 1 .946-.681h4.348V3.542A3.54 3.54 0 0 0 15.169 0z"/><path fill="#FF5722" d="M18.712 6.642h-3.79l-1.987 5.96a1 1 0 0 1-.945.682H7.722a1 1 0 0 1-.945-.681L4.79 6.642H1v7.527a3.54 3.54 0 0 0 3.542 3.543H15.17a3.54 3.54 0 0 0 3.542-3.543z"/><path fill="#525E72" d="M26.803 16.236q-.42 0-.9-.032a16 16 0 0 1-.962-.063q-.482-.062-.916-.11a10 10 0 0 1-.776-.141v-1.528q.435.031 1.009.063.59.032 1.226.048.636.015 1.226.015.622 0 1.102-.11.482-.126.745-.425.265-.3.264-.85v-.551q0-.614-.341-.945t-1.01-.33H26.4q-1.568 0-2.422-.693-.838-.693-.838-2.377v-.599q0-1.685.916-2.424.93-.756 2.654-.756.59 0 1.211.063.636.046 1.21.126.576.078.979.173v1.527a101 101 0 0 0-1.568-.094 30 30 0 0 0-1.614-.047q-.59 0-1.04.125-.45.126-.684.457-.232.315-.232.945v.378q0 .74.388 1.039.404.3 1.148.299h1.196q1.009 0 1.66.378.652.378.963 1.039.326.645.326 1.48v.74q0 1.29-.497 1.983-.496.693-1.366.945-.869.252-1.987.252m8.351-.016q-.372 0-.838-.079a2.5 2.5 0 0 1-.87-.299 1.9 1.9 0 0 1-.682-.74q-.264-.487-.264-1.338V7.057q0-.74.217-1.228a2 2 0 0 1 .575-.787q.372-.283.807-.394.45-.126.885-.126 1.086 0 1.956.032.87.03 1.583.063.73.03 1.35.079v1.621h-4.33q-.528 0-.839.268-.294.267-.295.834v2.063l4.766.11v1.527l-4.766.11v2q0 .472.156.724a.9.9 0 0 0 .419.346 1.6 1.6 0 0 0 .543.095h4.346v1.621q-.683.065-1.49.11-.807.032-1.645.048-.823.031-1.584.047m6.687-.079V4.522h1.537l5.216 8.298V4.522h1.925v11.62h-1.537l-5.216-8.298v8.297zm14.084.095q-.42 0-.9-.032a16 16 0 0 1-.963-.063q-.48-.062-.916-.11a10 10 0 0 1-.776-.141v-1.528q.434.031 1.01.063.589.032 1.225.048.637.015 1.227.015.62 0 1.102-.11.481-.126.745-.425.264-.3.264-.85v-.551q0-.614-.341-.945-.342-.33-1.01-.33h-1.07q-1.569 0-2.422-.693-.84-.693-.839-2.377v-.599q0-1.685.916-2.424.931-.756 2.655-.756a12 12 0 0 1 1.21.063q.637.046 1.212.126.574.078.977.173v1.527q-.682-.047-1.567-.094a30 30 0 0 0-1.615-.047q-.59 0-1.04.125-.45.126-.683.457-.233.315-.233.945v.378q0 .74.388 1.039.404.3 1.15.299h1.194q1.01 0 1.661.378.653.378.963 1.039.326.645.326 1.48v.74q0 1.29-.497 1.983-.496.693-1.366.945t-1.987.252m5.697-.095V4.522h1.909v11.62zm4.048 0V4.522h4.377q1.614 0 2.39.772.777.772.777 2.251 0 .693-.218 1.228-.2.52-.559.866-.357.33-.838.457.357.094.699.299.357.189.652.535t.465.85q.171.489.171 1.15 0 1.196-.403 1.905a2.27 2.27 0 0 1-1.15 1.007q-.744.3-1.8.3zm1.909-1.747h2.592q.48 0 .838-.173.358-.174.543-.551.202-.395.202-1.07 0-.537-.202-.898a1.36 1.36 0 0 0-.558-.551 1.6 1.6 0 0 0-.823-.205h-2.593zm0-4.96h2.499q.574 0 .931-.425.357-.44.373-1.149.014-.897-.388-1.244-.389-.345-.963-.346h-2.453zm11.924 6.786a9 9 0 0 1-1.754-.157 3.8 3.8 0 0 1-1.397-.583 2.8 2.8 0 0 1-.916-1.15q-.31-.739-.31-1.888v-7.92h1.908v7.92q0 .755.295 1.212.296.441.839.63.558.189 1.335.189.775 0 1.32-.19a1.6 1.6 0 0 0 .853-.63q.295-.456.295-1.211v-7.92h1.91v7.92q0 1.15-.327 1.889a2.7 2.7 0 0 1-.9 1.15 3.8 3.8 0 0 1-1.397.582 9 9 0 0 1-1.754.157m8.92-.079q-.807 0-1.397-.251a1.75 1.75 0 0 1-.87-.82q-.294-.582-.294-1.526V4.522h1.91v8.707q-.001.441.154.708a.8.8 0 0 0 .404.347q.264.094.574.094h3.804v1.763zm8.293 0q-.808 0-1.398-.251a1.75 1.75 0 0 1-.869-.82q-.295-.582-.295-1.526V4.522h1.91v8.707q0 .441.155.708a.8.8 0 0 0 .403.347q.264.094.575.094H101v1.763z"/></svg>